<svg width="16" height="16" viewBox="0 0 16 16" fill="none" xmlns="http://www.w3.org/2000/svg">
<path d="M15.7196 14.1773C15.7893 14.247 15.8446 14.3297 15.8823 14.4208C15.92 14.5118 15.9394 14.6094 15.9394 14.7079C15.9394 14.8065 15.92 14.9041 15.8823 14.9951C15.8446 15.0862 15.7893 15.1689 15.7196 15.2386C15.65 15.3082 15.5672 15.3635 15.4762 15.4012C15.3851 15.4389 15.2876 15.4584 15.189 15.4584C15.0905 15.4584 14.9929 15.4389 14.9018 15.4012C14.8108 15.3635 14.7281 15.3082 14.6584 15.2386L8.43902 9.01825L2.21964 15.2386C2.07891 15.3793 1.88804 15.4584 1.68902 15.4584C1.48999 15.4584 1.29912 15.3793 1.15839 15.2386C1.01766 15.0978 0.938599 14.907 0.938599 14.7079C0.938599 14.5089 1.01766 14.318 1.15839 14.1773L7.3787 7.95794L1.15839 1.73856C1.01766 1.59783 0.938599 1.40696 0.938599 1.20794C0.938599 1.00891 1.01766 0.818042 1.15839 0.677312C1.29912 0.536581 1.48999 0.45752 1.68902 0.45752C1.88804 0.45752 2.07891 0.536581 2.21964 0.677312L8.43902 6.89762L14.6584 0.677312C14.7991 0.536581 14.99 0.45752 15.189 0.45752C15.388 0.45752 15.5789 0.536581 15.7196 0.677312C15.8604 0.818042 15.9394 1.00891 15.9394 1.20794C15.9394 1.40696 15.8604 1.59783 15.7196 1.73856L9.49933 7.95794L15.7196 14.1773Z" fill="#231F20"/>
</svg>
